<svg width="470" height="340" viewBox="0 0 470 340" fill="none" xmlns="http://www.w3.org/2000/svg">
<mask id="mask0" mask-type="alpha" maskUnits="userSpaceOnUse" x="0" y="0" width="470" height="340">
<rect width="469.455" height="339.241" fill="#C4C4C4"/>
</mask>
<g mask="url(#mask0)">
<path fill-rule="evenodd" clip-rule="evenodd" d="M29.2601 26.0512C19.0778 16.9722 20.3131 18.1288 11.0027 8.80227C11.0027 4.34602 14.6152 0.733521 19.0714 0.733521L19.805 0.733521C26.453 7.56966 32.4404 12.0388 39.5366 18.7548C65.9472 37.6594 93.7435 35.1212 119.373 32.7774C125.248 32.2407 131.021 31.7156 136.636 31.4399C136.906 31.229 137.201 31.0565 137.508 30.9425L137.506 30.934C154.897 24.1346 175.641 17.0388 197.726 13.997C219.979 10.9293 243.522 12.004 266.257 21.6218C309.475 38.873 347.23 63.7245 384.986 88.5756C403.779 100.945 422.58 113.312 441.894 124.655C443.51 125.605 444.052 127.684 443.103 129.3C442.296 130.679 440.655 131.28 439.191 130.829C411.087 122.957 383.382 120.406 355.633 117.855C337.183 116.158 318.724 114.455 299.966 111.188C264.554 105.011 237.559 98.9294 212.426 88.1032C187.76 77.4777 165.048 62.3491 138.181 38.1791C132.273 38.4186 126.201 38.9691 120.002 39.5366C100.357 41.3299 79.502 43.2376 58.5606 36.1311C91.3238 65.0231 127.988 92.2489 167.401 116.322C177.436 116.95 187.624 116.357 197.821 115.763C203.339 115.437 208.859 115.12 214.241 114.986C258.105 113.914 314.675 140.509 354.779 159.363L362.848 163.15C396.613 179.004 430.819 195.064 466.933 204.625C468.144 204.945 469.123 205.928 469.386 207.229C469.757 209.065 468.573 210.85 466.737 211.221C437.5 217.151 406.82 220.074 378.245 219.834C350.141 219.604 323.991 216.33 303.144 209.864C273.968 202.357 245.871 189.499 222.067 174.461C196.5 158.312 175.823 139.586 164.013 122.2C129.71 102.825 112.215 91.1964 82.4584 68.0274C95.6297 86.5396 98.8284 103.493 101.38 110.055C109.179 115.555 115.979 119.981 122.291 124.097C138.945 134.953 152.268 143.635 170.854 163.141C197.387 190.983 207.257 229.412 232.449 267.842C247.331 290.545 262.213 313.249 277.252 333.594C278.023 334.488 278.308 335.768 277.88 336.958C277.248 338.727 275.307 339.649 273.538 339.017C218.359 319.261 177.898 278.829 139.967 234.517C104.324 192.887 84.3437 147.637 95.0033 112.36C92.2988 105.387 89.8366 98.6801 87.2059 92.3006C77.3096 68.304 63.0426 57.2213 45.0237 39.7024C44.2917 39.0844 43.5593 38.4664 42.8291 37.8479C44.4396 43.2702 46.804 51.1783 46.4501 58.2629C52.9381 61.1157 59.0003 66.5451 64.0579 72.8794C70.6161 81.0959 75.5561 90.9114 77.5107 98.4831C78.6185 102.356 76.3006 106.61 71.6385 110.359C67.568 113.64 61.5688 116.681 54.617 118.712L54.4025 118.776C47.519 120.763 40.9161 121.411 35.7821 120.847C29.8169 120.196 25.5578 117.845 24.4205 113.956C24.1623 113.072 24.0836 112.169 24.1734 111.256C23.8588 100.154 25.3608 88.8253 28.4995 79.2383C31.3474 70.5311 35.5738 63.2155 41.0663 58.6745C40.1149 43.4333 35.4259 35.3147 29.2601 26.0512ZM67.0429 106.228C69.7795 104.07 71.2484 102.004 70.8127 100.541C70.3774 99.0836 67.9974 98.1233 64.5074 97.7448C60.2957 97.2846 54.772 97.8342 48.9498 99.5023L48.944 99.5032C43.1147 101.166 38.1634 103.605 34.8736 106.2C32.6902 107.925 31.3076 109.585 31.0672 110.93C31.0668 111.06 31.0543 111.191 31.0283 111.317C31.0257 111.515 31.0525 111.703 31.1039 111.887C31.5391 113.344 33.9191 114.304 37.4091 114.683C41.6204 115.143 47.1445 114.593 52.9663 112.925L52.9725 112.924C58.8014 111.261 63.7469 108.824 67.0367 106.229L67.0429 106.228Z" fill="#C3C99C"/>
<path fill-rule="evenodd" clip-rule="evenodd" d="M342.349 78.8755C304.86 75.8317 272.927 74.8193 234.617 74.8193C195.76 74.8193 158.189 76.846 125.352 78.8755C117.143 79.4842 113.038 82.325 112.491 89.4271C110.576 116.415 110.028 146.65 110.028 176.073C110.028 259.269 111.67 262.109 130.551 263.53C157.368 265.559 188.563 265.965 237.271 265.965C273.118 265.965 311.154 264.545 348.096 262.109C354.389 261.704 357.399 259.269 357.673 253.384C359.862 219.497 359.862 189.465 359.862 164.912C359.862 85.1658 357.947 80.0929 342.349 78.8755Z" fill="#3A3D29"/>
<path fill-rule="evenodd" clip-rule="evenodd" d="M208.892 182.519C207.8 180.055 204.891 179.26 202.071 179.26C200.434 179.26 199.798 179.816 198.889 181.963C195.888 189.515 191.25 204.222 188.432 215.749C187.158 215.828 186.067 215.987 185.158 216.067C184.248 216.226 183.794 216.941 183.885 217.895C183.885 219.406 185.249 221.473 186.977 222.029C186.158 225.686 185.703 228.627 185.703 230.376C185.703 232.046 188.795 233.318 190.705 233.318C192.251 233.318 192.705 232.523 193.251 230.535C193.797 228.627 194.524 225.607 195.433 221.87C200.798 221.473 207.346 220.837 210.801 220.519C212.165 225.607 213.256 229.423 214.075 230.853C215.166 232.602 217.166 233.318 219.622 233.318C221.804 233.318 222.349 232.364 222.349 230.853C222.349 227.038 213.347 191.9 208.892 182.519ZM174.246 207.402C175.701 206.13 176.065 202.393 176.065 198.259C176.065 188.163 171.882 179.18 161.788 179.18C151.149 179.18 143.601 189.992 143.601 212.012C143.601 226.242 149.148 233.238 161.788 233.238C170.063 233.238 178.338 228.786 178.338 225.765C178.338 223.937 176.337 220.996 174.973 220.996C173.609 220.996 168.335 225.527 162.061 225.527C156.15 225.527 153.24 222.665 153.24 211.138C153.24 195.636 156.241 186.653 161.606 186.653C165.334 186.653 167.426 190.548 167.426 199.929C167.426 201.996 167.153 205.573 167.153 206.845C167.153 208.038 168.517 208.594 169.699 208.594C171.7 208.594 173.245 208.197 174.246 207.402ZM237.99 231.41C238.172 225.209 238.99 207.084 239.809 189.674C243.355 206.289 248.266 225.845 250.63 230.615C251.63 232.364 254.449 233.079 256.268 233.079C257.905 233.079 258.45 232.443 258.723 231.41C260.814 224.573 266.452 203.983 268.908 189.594C269.999 206.766 270.454 224.732 271.726 230.376C272.363 232.364 275.819 233.079 278.456 233.079C280.456 233.079 281.002 232.205 280.911 230.694C280.274 221.155 277.637 190.389 275.182 182.042C274.636 180.214 271.181 179.419 268.635 179.419C266.361 179.419 265.816 180.134 265.361 181.644C262.087 193.649 258.359 208.435 255.995 220.519C252.721 205.732 247.993 187.766 245.265 181.565C244.537 179.896 241.355 179.26 238.536 179.26C236.99 179.26 235.808 179.896 235.535 181.486C232.898 198.259 229.897 223.619 229.897 230.297C229.897 232.205 233.08 233.159 235.535 233.159C236.99 233.159 237.99 232.602 237.99 231.41ZM293.005 188.004C291.277 188.004 289.64 184.109 289.64 182.917C289.64 179.896 302.826 178.942 308.282 178.942C321.831 178.942 327.196 184.268 327.196 196.51C327.196 211.854 318.921 218.293 311.192 218.372C308.191 218.372 305.099 217.816 303.553 216.862C303.372 223.063 303.099 228.15 303.008 229.82C302.826 231.807 302.371 233 300.007 232.92C297.097 232.841 294.733 232.205 294.369 230.138C293.914 226.401 293.55 202.791 293.914 188.004H293.005ZM196.888 215.351C198.889 206.845 201.162 196.51 203.072 187.607C205.072 196.193 207.346 206.686 209.437 215.193C206.163 215.193 201.526 215.272 196.888 215.351ZM308.737 212.251C306.372 212.251 304.826 212.012 303.644 211.933C303.826 202.711 303.917 192.456 303.553 186.733C305.281 186.494 306.918 186.335 308.555 186.335C314.829 186.335 317.739 188.799 317.739 197.464C317.739 207.799 313.556 212.251 308.737 212.251ZM295.005 150.57C293.278 150.57 291.732 153.352 291.732 156.294C291.732 158.997 299.006 162.733 309.646 162.733C318.648 162.733 326.286 158.122 326.286 150.331C326.286 137.612 302.098 137.532 302.098 127.754C302.098 120.122 304.917 115.75 308.737 115.75C312.556 115.75 315.102 120.759 315.283 129.742C315.283 131.013 316.284 131.729 317.375 131.729C321.194 131.729 323.831 128.867 323.831 126.482C323.831 117.976 321.194 108.516 309.918 108.516C299.097 108.516 292.55 117.579 292.55 128.629C292.55 144.051 317.739 144.369 317.739 151.127C317.739 153.829 315.465 155.419 311.737 155.419C304.553 155.419 297.461 150.57 295.005 150.57ZM211.619 111.855C210.528 109.391 207.618 108.595 204.8 108.595C203.163 108.595 202.526 109.152 201.617 111.298C198.616 118.851 193.979 133.558 191.159 145.085C189.886 145.164 188.795 145.323 187.886 145.403C186.977 145.562 186.522 146.277 186.613 147.231C186.613 148.742 187.977 150.808 189.704 151.365C188.886 155.022 188.432 157.963 188.432 159.712C188.432 161.381 191.523 162.653 193.433 162.653C194.978 162.653 195.433 161.858 195.979 159.871C196.524 157.963 197.252 154.943 198.161 151.206C203.526 150.808 210.074 150.173 213.529 149.854C214.893 154.942 215.984 158.758 216.802 160.189C217.894 161.938 219.894 162.653 222.349 162.653C224.532 162.653 225.078 161.7 225.078 160.189C225.078 156.373 216.075 121.236 211.619 111.855ZM146.602 117.34C144.874 117.34 143.238 113.445 143.238 112.252C143.238 109.231 156.423 108.277 161.879 108.277C174.791 108.277 180.793 113.047 180.793 125.767C180.793 135.943 175.428 141.825 169.608 144.051C172.882 148.503 177.701 154.306 179.975 157.248C180.611 157.963 180.884 158.52 180.884 159.076C180.884 160.984 177.429 162.495 174.246 162.495C171.518 162.495 167.153 156.612 160.97 145.005C159.515 144.846 158.151 144.687 157.15 144.369C156.968 151.444 156.695 157.327 156.605 159.156C156.423 161.143 155.968 162.335 153.604 162.256C150.694 162.177 148.33 161.541 147.966 159.473C147.511 155.737 147.148 132.206 147.511 117.34H146.602ZM260.178 111.219C259.542 125.051 259.905 155.26 260.451 159.473C260.814 161.541 263.179 162.256 265.998 162.256C267.362 162.335 268.908 162.335 270.817 162.335C276.001 162.335 282.456 161.938 283.821 161.7C286.64 161.223 287.549 160.904 287.549 159.394C287.549 156.85 285.458 154.704 282.547 154.704C280.092 154.704 274.636 154.943 269.271 155.181C269.726 144.528 270.363 118.135 269.362 111.775C268.999 109.708 265.361 108.914 263.088 108.914C261.087 108.914 260.269 109.867 260.178 111.219ZM235.899 111.219C235.262 125.051 235.626 155.26 236.172 159.473C236.535 161.541 238.899 162.256 241.809 162.256C244.083 162.256 244.628 161.143 244.81 159.156C245.174 154.306 246.265 119.248 245.083 111.775C244.719 109.708 241.082 108.914 238.808 108.914C236.808 108.914 235.99 109.867 235.899 111.219ZM199.616 144.687C201.617 136.181 203.89 125.846 205.8 116.943C207.8 125.528 210.074 136.022 212.165 144.528C208.892 144.528 204.254 144.608 199.616 144.687ZM161.697 139.202C159.697 139.202 158.332 138.963 157.241 138.805C157.423 130.378 157.514 121.394 157.15 116.068C158.878 115.829 160.515 115.671 162.151 115.671C168.426 115.671 171.336 118.374 171.336 126.721C171.336 135.386 166.88 139.202 161.697 139.202Z" fill="#FCE7B5"/>
</g>
</svg>
