<?xml version="1.0" encoding="UTF-8"?>
<svg width="824px" height="659px" viewBox="0 0 824 659" version="1.1" xmlns="http://www.w3.org/2000/svg" xmlns:xlink="http://www.w3.org/1999/xlink">
    <!-- Generator: Sketch 54.1 (76490) - https://sketchapp.com -->
    <title>slide</title>
    <desc>Created with Sketch.</desc>
    <g id="slide" stroke="none" stroke-width="1" fill="none" fill-rule="evenodd">
        <path d="M60.233,359.799 C59.653,360.831 61.138,362.462 62.413,363.378 C63.263,363.988 63.849,363.846 64.665,362.822 C65.367,361.957 67.495,359.218 69.838,356.069 C71.933,357.413 73.815,358.604 75.219,359.452 C77.587,360.751 77.937,360.6 78.281,360.122 C79.159,358.9 79.38,355.677 78.105,354.761 C76.353,353.502 74.759,352.357 73.325,351.327 C75.119,348.831 76.859,346.296 77.897,344.627 C78.44,343.647 76.644,341.552 75.688,340.865 C74.838,340.254 74.29,340.344 73.603,341.3 C72.261,342.832 70.377,345.343 68.469,347.999 C66.2,346.45 64.477,345.373 63.232,344.64 C60.955,343.326 60.46,343.454 60.155,343.879 C59.659,344.569 58.281,348.169 59.662,349.161 C61.308,350.344 63.152,351.588 64.996,352.833 C62.821,355.86 61.02,358.592 60.233,359.799" id="Fill-1" fill="#000000"></path>
        <path d="M73.629,590.853 C74.479,592.815 76.507,593.535 78.599,593.535 C79.777,593.535 80.234,593.077 80.758,591.573 C84.289,581.566 90.371,557.957 90.371,551.482 C90.371,550.044 88.213,549.063 86.84,549.063 C85.728,549.063 85.401,549.717 85.009,551.352 C83.701,556.714 80.3,573.653 77.815,586.733 C75.068,573.457 71.667,555.406 69.901,551.09 C69.182,549.651 67.547,549.063 65.846,549.063 C64.342,549.063 63.884,549.847 63.884,551.09 C63.884,552.333 64.865,557.303 66.173,563.451 C64.931,566.394 63.492,569.533 62.903,572.345 C62.249,574.503 60.418,580.782 59.437,588.041 C58.064,581.632 56.102,570.579 55.644,568.748 C54.14,561.096 52.243,551.613 50.543,549.978 C49.693,549.259 47.861,549.259 46.815,549.651 C45.769,551.155 48.45,565.02 49.758,569.729 C51.001,576.988 53.944,589.087 55.971,591.965 C56.756,593.208 58.914,593.338 60.287,592.75 C62.511,589.48 64.342,582.482 65.585,576.792 C66.304,573.915 66.827,571.037 67.22,568.094 C69.313,576.988 71.929,586.798 73.629,590.853" id="Fill-2" fill="#000000"></path>
        <path d="M107.179,587.06 C103.778,587.06 101.293,583.201 101.293,574.111 C101.293,561.162 104.367,555.21 107.899,555.21 C110.776,555.21 113.719,557.303 113.719,567.767 C113.719,579.866 111.365,587.06 107.179,587.06 Z M108.356,593.469 C117.447,593.469 120.717,583.463 120.717,568.29 C120.717,553.706 115.42,548.997 108.095,548.997 C99.397,548.997 94.361,559.265 94.361,575.157 C94.361,586.21 98.743,593.469 108.356,593.469 L108.356,593.469 Z" id="Fill-3" fill="#000000"></path>
        <path d="M139.814,587.06 C136.413,587.06 133.928,583.201 133.928,574.111 C133.928,561.162 137.002,555.21 140.533,555.21 C143.411,555.21 146.354,557.303 146.354,567.767 C146.354,579.866 143.999,587.06 139.814,587.06 Z M140.991,593.469 C150.082,593.469 153.352,583.463 153.352,568.29 C153.352,553.706 148.054,548.997 140.729,548.997 C132.031,548.997 126.995,559.265 126.995,575.157 C126.995,586.21 131.377,593.469 140.991,593.469 L140.991,593.469 Z" id="Fill-4" fill="#000000"></path>
        <path d="M168.917,588.433 L168.786,588.433 C169.048,581.501 169.44,563.712 169.113,555.276 C170.552,555.079 171.991,554.883 173.364,554.883 C178.073,554.883 180.166,558.48 180.166,567.113 C180.166,580.455 176.176,588.433 168.917,588.433 Z M169.048,593.273 C180.885,593.273 186.967,583.921 186.967,567.375 C186.967,553.379 182.978,548.801 172.514,548.801 C165.908,548.801 159.041,550.371 159.041,552.071 C159.041,553.444 160.219,556.257 161.461,556.257 C161.657,556.257 161.919,556.257 162.115,556.257 C161.854,568.356 162.115,587.91 162.442,590.919 C162.704,592.75 165.385,593.273 169.048,593.273 L169.048,593.273 Z" id="Fill-5" fill="#000000"></path>
        <path d="M213.193,551.221 C212.996,556.387 212.931,564.366 212.931,571.822 C210.838,571.887 206.914,572.018 203.056,572.28 C203.186,563.712 203.186,554.818 202.729,551.679 C202.467,549.978 199.851,549.324 198.216,549.324 C196.777,549.324 196.189,550.109 196.123,551.221 C195.927,556.649 195.862,565.151 195.927,572.868 C195.338,572.999 194.815,573.064 194.357,573.13 C193.442,573.195 193.115,573.653 193.115,574.438 C193.115,575.811 194.161,577.904 195.927,578.035 C195.992,584.379 196.189,589.48 196.319,590.919 C196.581,592.619 198.281,593.208 200.374,593.208 C202.009,593.208 202.402,592.292 202.532,590.657 C202.663,589.087 202.794,583.855 202.925,577.577 C206.653,577.25 210.773,576.792 212.996,576.596 C213.062,583.528 213.193,589.349 213.389,590.919 C213.65,592.619 215.351,593.208 217.444,593.208 C219.079,593.208 219.471,592.292 219.602,590.657 C219.863,586.668 220.648,557.826 219.798,551.679 C219.536,549.978 216.92,549.324 215.285,549.324 C213.847,549.324 213.258,550.109 213.193,551.221" id="Fill-6" fill="#000000"></path>
        <path d="M241.184,587.06 C237.783,587.06 235.298,583.201 235.298,574.111 C235.298,561.162 238.372,555.21 241.903,555.21 C244.781,555.21 247.724,557.303 247.724,567.767 C247.724,579.866 245.369,587.06 241.184,587.06 Z M242.361,593.469 C251.452,593.469 254.722,583.463 254.722,568.29 C254.722,553.706 249.424,548.997 242.099,548.997 C233.401,548.997 228.365,559.265 228.365,575.157 C228.365,586.21 232.747,593.469 242.361,593.469 L242.361,593.469 Z" id="Fill-7" fill="#000000"></path>
        <path d="M274.734,593.469 C282.647,593.469 286.964,588.63 286.964,573.261 C286.964,565.543 286.768,556.584 286.375,551.94 C286.179,550.371 283.825,549.324 282.124,549.324 C281.012,549.324 280.228,549.717 280.162,551.221 C279.901,558.153 279.901,574.111 279.901,577.381 C279.901,585.556 277.677,587.714 274.669,587.714 C271.464,587.714 269.371,585.752 269.371,577.25 C269.371,572.868 269.633,563.385 269.633,556.387 C269.633,554.229 269.567,552.463 269.437,551.548 C269.175,549.913 266.886,549.324 265.186,549.324 C263.747,549.324 263.027,549.847 262.897,551.417 C262.7,556.322 262.308,566.001 262.308,576.661 C262.308,589.349 266.69,593.469 274.734,593.469" id="Fill-8" fill="#000000"></path>
        <path d="M296.643,583.594 C295.4,583.594 294.289,585.883 294.289,588.303 C294.289,590.526 299.521,593.6 307.172,593.6 C313.647,593.6 319.141,589.807 319.141,583.398 C319.141,572.934 301.744,572.868 301.744,564.824 C301.744,558.546 303.772,554.949 306.518,554.949 C309.265,554.949 311.096,559.069 311.227,566.459 C311.227,567.505 311.947,568.094 312.731,568.094 C315.478,568.094 317.375,565.74 317.375,563.778 C317.375,556.78 315.478,548.997 307.369,548.997 C299.586,548.997 294.877,556.453 294.877,565.543 C294.877,578.231 312.993,578.493 312.993,584.052 C312.993,586.275 311.358,587.583 308.677,587.583 C303.51,587.583 298.409,583.594 296.643,583.594" id="Fill-9" fill="#000000"></path>
        <path d="M327.446,556.584 L327.643,556.584 C327.25,568.486 327.381,588.63 327.708,590.461 C328.1,592.292 330.913,593.469 332.417,593.469 C337.583,593.469 346.085,592.684 347.59,592.423 C350.467,592.03 347.655,586.929 345.17,586.929 C342.292,586.929 338.237,587.256 334.248,587.714 C334.379,584.64 334.51,580.258 334.575,575.55 C338.564,575.419 343.796,575.157 345.235,575.026 C346.412,574.896 346.87,574.503 346.87,573.13 C346.87,571.756 345.17,569.925 343.469,569.925 C341.769,569.925 338.041,570.252 334.706,570.775 C334.771,565.478 334.771,560.115 334.64,556.322 C338.63,556.06 342.75,555.668 345.431,555.276 C348.636,554.818 349.748,554.229 349.748,553.117 C349.748,551.352 347.72,549.324 344.843,549.324 C336.733,549.324 329.932,550.044 327.381,550.567 C325.615,551.025 325.223,551.809 325.223,552.725 C325.223,553.575 326.138,556.584 327.446,556.584" id="Fill-10" fill="#000000"></path>
        <path d="M383.233,551.744 C382.448,549.717 380.355,549.063 378.328,549.063 C377.15,549.063 376.693,549.52 376.039,551.286 C373.88,557.499 370.545,569.598 368.518,579.081 C367.602,579.147 366.817,579.277 366.163,579.343 C365.509,579.474 365.182,580.062 365.248,580.847 C365.248,582.09 366.229,583.79 367.471,584.248 C366.883,587.256 366.556,589.676 366.556,591.115 C366.556,592.488 368.779,593.535 370.153,593.535 C371.264,593.535 371.591,592.881 371.984,591.246 C372.376,589.676 372.899,587.191 373.553,584.117 C377.412,583.79 382.121,583.267 384.606,583.005 C385.587,587.191 386.372,590.33 386.96,591.507 C387.745,592.946 389.184,593.535 390.95,593.535 C392.519,593.535 392.912,592.75 392.912,591.507 C392.912,588.368 386.437,559.461 383.233,551.744 Z M374.6,578.754 C376.039,571.756 377.674,563.254 379.047,555.93 C380.486,562.993 382.121,571.626 383.625,578.623 C381.271,578.623 377.935,578.689 374.6,578.754 L374.6,578.754 Z" id="Fill-11" fill="#000000"></path>
        <path d="M420.184,572.214 C421.23,571.168 421.492,568.094 421.492,564.693 C421.492,556.387 418.483,548.997 411.224,548.997 C403.572,548.997 398.144,557.892 398.144,576.007 C398.144,587.714 402.133,593.469 411.224,593.469 C417.175,593.469 423.127,589.807 423.127,587.322 C423.127,585.817 421.688,583.398 420.707,583.398 C419.726,583.398 415.933,587.125 411.42,587.125 C407.169,587.125 405.076,584.771 405.076,575.288 C405.076,562.535 407.234,555.145 411.093,555.145 C413.774,555.145 415.279,558.349 415.279,566.067 C415.279,567.767 415.082,570.71 415.082,571.756 C415.082,572.737 416.063,573.195 416.914,573.195 C418.352,573.195 419.464,572.868 420.184,572.214" id="Fill-12" fill="#000000"></path>
        <path d="M429.078,556.518 C430.713,556.518 432.806,556.387 434.964,556.322 C434.702,568.552 434.964,587.845 435.356,590.919 C435.553,592.619 437.253,593.208 439.346,593.208 C440.981,593.208 441.373,592.292 441.504,590.657 C441.7,587.191 442.354,565.413 441.962,555.799 C443.466,555.603 444.905,555.472 446.017,555.276 C449.09,554.818 450.202,554.36 450.202,553.314 C450.202,551.482 448.24,549.324 445.363,549.324 C437.449,549.324 430.975,550.109 428.489,550.632 C426.724,551.09 426.331,551.875 426.331,552.79 C426.331,553.641 427.378,556.518 429.078,556.518" id="Fill-13" fill="#000000"></path>
        <path d="M456.023,551.221 C455.565,562.6 455.827,587.452 456.219,590.919 C456.481,592.619 458.181,593.208 460.274,593.208 C461.909,593.208 462.301,592.292 462.432,590.657 C462.694,586.668 463.478,557.826 462.628,551.679 C462.367,549.978 459.751,549.324 458.116,549.324 C456.677,549.324 456.088,550.109 456.023,551.221" id="Fill-14" fill="#000000"></path>
        <path d="M480.155,590.853 C481.006,592.815 483.033,593.535 485.126,593.535 C486.303,593.535 486.761,593.077 487.284,591.573 C490.816,581.566 496.898,557.957 496.898,551.482 C496.898,550.044 494.74,549.063 493.366,549.063 C492.254,549.063 491.927,549.717 491.535,551.352 C490.227,556.714 486.826,573.653 484.341,586.733 C481.594,573.457 478.193,555.406 476.428,551.09 C475.708,549.651 474.073,549.063 472.373,549.063 C470.869,549.063 470.411,549.847 470.411,551.09 C470.411,554.295 476.885,583.136 480.155,590.853" id="Fill-15" fill="#000000"></path>
        <path d="M503.83,551.221 C503.372,562.6 503.634,587.452 504.026,590.919 C504.288,592.619 505.988,593.208 508.081,593.208 C509.716,593.208 510.109,592.292 510.239,590.657 C510.501,586.668 511.286,557.826 510.436,551.679 C510.174,549.978 507.558,549.324 505.923,549.324 C504.484,549.324 503.896,550.109 503.83,551.221" id="Fill-16" fill="#000000"></path>
        <path d="M519.068,556.518 C520.703,556.518 522.796,556.387 524.954,556.322 C524.693,568.552 524.954,587.845 525.347,590.919 C525.543,592.619 527.243,593.208 529.336,593.208 C530.971,593.208 531.364,592.292 531.494,590.657 C531.691,587.191 532.345,565.413 531.952,555.799 C533.456,555.603 534.895,555.472 536.007,555.276 C539.081,554.818 540.193,554.36 540.193,553.314 C540.193,551.482 538.231,549.324 535.353,549.324 C527.44,549.324 520.965,550.109 518.48,550.632 C516.714,551.09 516.322,551.875 516.322,552.79 C516.322,553.641 517.368,556.518 519.068,556.518" id="Fill-17" fill="#000000"></path>
        <path d="M543.07,550.763 C543.07,554.033 550.068,573.915 553.142,580.847 C553.076,584.902 553.142,589.741 553.207,591.049 C553.338,592.75 555.496,593.273 557.327,593.273 C559.028,593.273 559.355,592.227 559.486,590.265 C559.551,588.891 559.878,583.855 559.943,580.258 C563.148,572.476 569.557,554.687 569.557,551.286 C569.557,549.913 567.399,549.063 565.895,549.063 C564.979,549.063 564.652,549.717 564.194,551.025 C562.952,554.949 559.551,566.197 557.197,575.288 C554.711,565.805 550.33,553.641 548.956,550.828 C548.237,549.455 545.817,548.997 544.836,548.997 C543.528,548.997 543.07,549.586 543.07,550.763" id="Fill-18" fill="#000000"></path>
        <path d="M608.078,572.214 C609.124,571.168 609.386,568.094 609.386,564.693 C609.386,556.387 606.377,548.997 599.118,548.997 C591.466,548.997 586.038,557.892 586.038,576.007 C586.038,587.714 590.027,593.469 599.118,593.469 C605.069,593.469 611.021,589.807 611.021,587.322 C611.021,585.817 609.582,583.398 608.601,583.398 C607.62,583.398 603.827,587.125 599.314,587.125 C595.063,587.125 592.97,584.771 592.97,575.288 C592.97,562.535 595.129,555.145 598.987,555.145 C601.669,555.145 603.173,558.349 603.173,566.067 C603.173,567.767 602.977,570.71 602.977,571.756 C602.977,572.737 603.958,573.195 604.808,573.195 C606.247,573.195 607.358,572.868 608.078,572.214" id="Fill-19" fill="#000000"></path>
        <path d="M619.196,556.584 L619.392,556.584 C619,568.486 619.13,588.63 619.457,590.461 C619.85,592.292 622.662,593.469 624.166,593.469 C629.333,593.469 637.835,592.684 639.339,592.423 C642.217,592.03 639.404,586.929 636.919,586.929 C634.042,586.929 629.987,587.256 625.997,587.714 C626.128,584.64 626.259,580.258 626.324,575.55 C630.314,575.419 635.546,575.157 636.985,575.026 C638.162,574.896 638.62,574.503 638.62,573.13 C638.62,571.756 636.919,569.925 635.219,569.925 C633.518,569.925 629.791,570.252 626.455,570.775 C626.521,565.478 626.521,560.115 626.39,556.322 C630.379,556.06 634.499,555.668 637.181,555.276 C640.385,554.818 641.497,554.229 641.497,553.117 C641.497,551.352 639.47,549.324 636.592,549.324 C628.483,549.324 621.681,550.044 619.13,550.567 C617.365,551.025 616.972,551.809 616.972,552.725 C616.972,553.575 617.888,556.584 619.196,556.584" id="Fill-20" fill="#000000"></path>
        <path d="M648.56,590.722 C648.953,592.554 651.765,593.208 652.877,593.208 C654.054,593.208 654.708,592.488 654.708,591.049 C654.708,588.172 654.119,569.598 653.596,558.873 C657.062,570.187 663.602,585.752 667.069,591.573 C668.115,593.142 670.6,593.273 671.712,593.273 C672.824,593.273 673.347,592.423 673.478,591.311 C673.739,588.172 674.328,570.383 674.328,559.527 C674.328,556.453 674.328,553.444 674.197,551.809 C674.001,550.044 671.385,549.128 669.423,549.128 C668.05,549.128 667.723,549.847 667.723,551.09 C667.723,553.706 668.18,567.309 669.031,583.136 C665.303,572.214 658.37,555.341 655.689,551.025 C654.643,549.586 652.419,549.259 651.046,549.259 C649.803,549.259 649.411,550.174 649.214,551.875 C648.822,555.537 648.43,570.775 648.43,581.043 C648.43,585.817 648.43,589.48 648.56,590.722" id="Fill-21" fill="#000000"></path>
        <path d="M681.914,556.518 C683.549,556.518 685.642,556.387 687.8,556.322 C687.539,568.552 687.8,587.845 688.193,590.919 C688.389,592.619 690.089,593.208 692.182,593.208 C693.817,593.208 694.21,592.292 694.34,590.657 C694.537,587.191 695.191,565.413 694.798,555.799 C696.302,555.603 697.741,555.472 698.853,555.276 C701.927,554.818 703.039,554.36 703.039,553.314 C703.039,551.482 701.077,549.324 698.199,549.324 C690.286,549.324 683.811,550.109 681.326,550.632 C679.56,551.09 679.168,551.875 679.168,552.79 C679.168,553.641 680.214,556.518 681.914,556.518" id="Fill-22" fill="#000000"></path>
        <path d="M719.912,574.242 C718.473,574.242 717.492,574.045 716.707,573.915 C716.838,566.982 716.903,559.592 716.642,555.21 C717.884,555.014 719.062,554.883 720.239,554.883 C724.751,554.883 726.844,557.107 726.844,563.974 C726.844,571.102 723.64,574.242 719.912,574.242 Z M709.055,556.257 C709.252,556.257 709.513,556.257 709.709,556.257 C709.448,568.486 709.709,587.845 710.036,590.919 C710.298,592.619 711.998,593.142 714.091,593.208 C715.792,593.273 716.119,592.292 716.249,590.657 C716.315,589.153 716.511,584.313 716.642,578.493 C717.361,578.754 718.342,578.885 719.389,579.016 C723.836,588.564 726.975,593.404 728.937,593.404 C731.226,593.404 733.711,592.161 733.711,590.592 C733.711,590.134 733.515,589.676 733.057,589.087 C731.422,586.668 727.956,581.893 725.602,578.231 C729.787,576.4 733.646,571.56 733.646,563.189 C733.646,552.725 729.329,548.801 720.043,548.801 C716.119,548.801 706.636,549.586 706.636,552.071 C706.636,553.052 707.813,556.257 709.055,556.257 L709.055,556.257 Z" id="Fill-23" fill="#000000"></path>
        <path d="M742.017,556.584 L742.213,556.584 C741.821,568.486 741.952,588.63 742.279,590.461 C742.671,592.292 745.483,593.469 746.987,593.469 C752.154,593.469 760.656,592.684 762.16,592.423 C765.038,592.03 762.226,586.929 759.74,586.929 C756.863,586.929 752.808,587.256 748.819,587.714 C748.949,584.64 749.08,580.258 749.146,575.55 C753.135,575.419 758.367,575.157 759.806,575.026 C760.983,574.896 761.441,574.503 761.441,573.13 C761.441,571.756 759.74,569.925 758.04,569.925 C756.34,569.925 752.612,570.252 749.276,570.775 C749.342,565.478 749.342,560.115 749.211,556.322 C753.2,556.06 757.321,555.668 760.002,555.276 C763.207,554.818 764.318,554.229 764.318,553.117 C764.318,551.352 762.291,549.324 759.413,549.324 C751.304,549.324 744.502,550.044 741.952,550.567 C740.186,551.025 739.793,551.809 739.793,552.725 C739.793,553.575 740.709,556.584 742.017,556.584" id="Fill-24" fill="#000000"></path>
        <path d="M42.335,648.994 C41.093,648.994 39.981,651.283 39.981,653.703 C39.981,655.926 45.213,659 52.865,659 C59.339,659 64.833,655.207 64.833,648.798 C64.833,638.334 47.436,638.268 47.436,630.224 C47.436,623.946 49.464,620.349 52.211,620.349 C54.957,620.349 56.789,624.469 56.919,631.859 C56.919,632.905 57.639,633.494 58.424,633.494 C61.17,633.494 63.067,631.14 63.067,629.178 C63.067,622.18 61.17,614.397 53.061,614.397 C45.278,614.397 40.569,621.853 40.569,630.943 C40.569,643.631 58.685,643.893 58.685,649.452 C58.685,651.675 57.05,652.983 54.369,652.983 C49.202,652.983 44.101,648.994 42.335,648.994" id="Fill-25" fill="#000000"></path>
        <path d="M83.21,652.46 C79.809,652.46 77.324,648.601 77.324,639.511 C77.324,626.562 80.398,620.61 83.93,620.61 C86.807,620.61 89.75,622.703 89.75,633.167 C89.75,645.266 87.396,652.46 83.21,652.46 Z M84.387,658.869 C93.478,658.869 96.748,648.863 96.748,633.69 C96.748,619.106 91.451,614.397 84.126,614.397 C75.428,614.397 70.392,624.665 70.392,640.557 C70.392,651.61 74.774,658.869 84.387,658.869 L84.387,658.869 Z" id="Fill-26" fill="#000000"></path>
        <path d="M116.76,658.869 C124.674,658.869 128.99,654.03 128.99,638.661 C128.99,630.943 128.794,621.984 128.402,617.34 C128.205,615.771 125.851,614.724 124.151,614.724 C123.039,614.724 122.254,615.117 122.189,616.621 C121.927,623.553 121.927,639.511 121.927,642.781 C121.927,650.956 119.703,653.114 116.695,653.114 C113.49,653.114 111.398,651.152 111.398,642.65 C111.398,638.268 111.659,628.785 111.659,621.787 C111.659,619.629 111.594,617.863 111.463,616.948 C111.201,615.313 108.912,614.724 107.212,614.724 C105.773,614.724 105.054,615.247 104.923,616.817 C104.727,621.722 104.334,631.401 104.334,642.061 C104.334,654.749 108.716,658.869 116.76,658.869" id="Fill-27" fill="#000000"></path>
        <path d="M136.119,621.918 C137.754,621.918 139.847,621.787 142.005,621.722 C141.743,633.952 142.005,653.245 142.397,656.319 C142.593,658.019 144.294,658.608 146.387,658.608 C148.022,658.608 148.414,657.692 148.545,656.057 C148.741,652.591 149.395,630.813 149.003,621.199 C150.507,621.003 151.946,620.872 153.057,620.676 C156.131,620.218 157.243,619.76 157.243,618.714 C157.243,616.882 155.281,614.724 152.403,614.724 C144.49,614.724 138.015,615.509 135.53,616.032 C133.764,616.49 133.372,617.275 133.372,618.19 C133.372,619.041 134.418,621.918 136.119,621.918" id="Fill-28" fill="#000000"></path>
        <path d="M179.675,616.621 C179.479,621.787 179.414,629.766 179.414,637.222 C177.321,637.287 173.397,637.418 169.538,637.68 C169.669,629.112 169.669,620.218 169.211,617.079 C168.95,615.378 166.334,614.724 164.699,614.724 C163.26,614.724 162.671,615.509 162.606,616.621 C162.41,622.049 162.344,630.551 162.41,638.268 C161.821,638.399 161.298,638.464 160.84,638.53 C159.924,638.595 159.597,639.053 159.597,639.838 C159.597,641.211 160.644,643.304 162.41,643.435 C162.475,649.779 162.671,654.88 162.802,656.319 C163.064,658.019 164.764,658.608 166.857,658.608 C168.492,658.608 168.884,657.692 169.015,656.057 C169.146,654.487 169.277,649.255 169.407,642.977 C173.135,642.65 177.255,642.192 179.479,641.996 C179.544,648.928 179.675,654.749 179.871,656.319 C180.133,658.019 181.833,658.608 183.926,658.608 C185.561,658.608 185.954,657.692 186.084,656.057 C186.346,652.068 187.131,623.226 186.281,617.079 C186.019,615.378 183.403,614.724 181.768,614.724 C180.329,614.724 179.741,615.509 179.675,616.621" id="Fill-29" fill="#000000"></path>
        <path d="M223.166,617.144 C222.381,615.117 220.289,614.463 218.261,614.463 C217.084,614.463 216.626,614.92 215.972,616.686 C213.814,622.899 210.479,634.998 208.451,644.481 C207.536,644.547 206.751,644.677 206.097,644.743 C205.443,644.874 205.116,645.462 205.181,646.247 C205.181,647.49 206.162,649.19 207.405,649.648 C206.816,652.656 206.489,655.076 206.489,656.515 C206.489,657.888 208.713,658.935 210.086,658.935 C211.198,658.935 211.525,658.281 211.917,656.646 C212.31,655.076 212.833,652.591 213.487,649.517 C217.346,649.19 222.054,648.667 224.54,648.405 C225.521,652.591 226.305,655.73 226.894,656.907 C227.679,658.346 229.118,658.935 230.883,658.935 C232.453,658.935 232.845,658.15 232.845,656.907 C232.845,653.768 226.371,624.861 223.166,617.144 Z M214.533,644.154 C215.972,637.156 217.607,628.654 218.981,621.33 C220.419,628.393 222.054,637.026 223.559,644.023 C221.204,644.023 217.869,644.089 214.533,644.154 L214.533,644.154 Z" id="Fill-30" fill="#000000"></path>
        <path d="M251.746,658.869 C259.659,658.869 263.976,654.03 263.976,638.661 C263.976,630.943 263.78,621.984 263.387,617.34 C263.191,615.771 260.837,614.724 259.136,614.724 C258.024,614.724 257.24,615.117 257.174,616.621 C256.913,623.553 256.913,639.511 256.913,642.781 C256.913,650.956 254.689,653.114 251.681,653.114 C248.476,653.114 246.383,651.152 246.383,642.65 C246.383,638.268 246.645,628.785 246.645,621.787 C246.645,619.629 246.579,617.863 246.449,616.948 C246.187,615.313 243.898,614.724 242.198,614.724 C240.759,614.724 240.039,615.247 239.909,616.817 C239.712,621.722 239.32,631.401 239.32,642.061 C239.32,654.749 243.702,658.869 251.746,658.869" id="Fill-31" fill="#000000"></path>
        <path d="M273.655,648.994 C272.412,648.994 271.301,651.283 271.301,653.703 C271.301,655.926 276.533,659 284.184,659 C290.659,659 296.153,655.207 296.153,648.798 C296.153,638.334 278.756,638.268 278.756,630.224 C278.756,623.946 280.784,620.349 283.53,620.349 C286.277,620.349 288.108,624.469 288.239,631.859 C288.239,632.905 288.959,633.494 289.743,633.494 C292.49,633.494 294.387,631.14 294.387,629.178 C294.387,622.18 292.49,614.397 284.381,614.397 C276.598,614.397 271.889,621.853 271.889,630.943 C271.889,643.631 290.005,643.893 290.005,649.452 C290.005,651.675 288.37,652.983 285.689,652.983 C280.522,652.983 275.421,648.994 273.655,648.994" id="Fill-32" fill="#000000"></path>
        <path d="M300.927,621.918 C302.562,621.918 304.655,621.787 306.813,621.722 C306.551,633.952 306.813,653.245 307.205,656.319 C307.401,658.019 309.102,658.608 311.195,658.608 C312.83,658.608 313.222,657.692 313.353,656.057 C313.549,652.591 314.203,630.813 313.811,621.199 C315.315,621.003 316.754,620.872 317.865,620.676 C320.939,620.218 322.051,619.76 322.051,618.714 C322.051,616.882 320.089,614.724 317.211,614.724 C309.298,614.724 302.823,615.509 300.338,616.032 C298.572,616.49 298.18,617.275 298.18,618.19 C298.18,619.041 299.226,621.918 300.927,621.918" id="Fill-33" fill="#000000"></path>
        <path d="M338.924,639.642 C337.485,639.642 336.504,639.445 335.72,639.315 C335.85,632.382 335.916,624.992 335.654,620.61 C336.897,620.414 338.074,620.283 339.251,620.283 C343.764,620.283 345.857,622.507 345.857,629.374 C345.857,636.502 342.652,639.642 338.924,639.642 Z M328.068,621.657 C328.264,621.657 328.526,621.657 328.722,621.657 C328.46,633.886 328.722,653.245 329.049,656.319 C329.31,658.019 331.011,658.542 333.104,658.608 C334.804,658.673 335.131,657.692 335.262,656.057 C335.327,654.553 335.523,649.713 335.654,643.893 C336.374,644.154 337.355,644.285 338.401,644.416 C342.848,653.964 345.987,658.804 347.949,658.804 C350.238,658.804 352.724,657.561 352.724,655.992 C352.724,655.534 352.527,655.076 352.07,654.487 C350.435,652.068 346.968,647.293 344.614,643.631 C348.8,641.8 352.658,636.96 352.658,628.589 C352.658,618.125 348.342,614.201 339.055,614.201 C335.131,614.201 325.648,614.986 325.648,617.471 C325.648,618.452 326.825,621.657 328.068,621.657 L328.068,621.657 Z" id="Fill-34" fill="#000000"></path>
        <path d="M374.829,617.144 C374.044,615.117 371.951,614.463 369.924,614.463 C368.747,614.463 368.289,614.92 367.635,616.686 C365.477,622.899 362.141,634.998 360.114,644.481 C359.198,644.547 358.413,644.677 357.759,644.743 C357.105,644.874 356.778,645.462 356.844,646.247 C356.844,647.49 357.825,649.19 359.067,649.648 C358.479,652.656 358.152,655.076 358.152,656.515 C358.152,657.888 360.375,658.935 361.749,658.935 C362.861,658.935 363.188,658.281 363.58,656.646 C363.972,655.076 364.496,652.591 365.15,649.517 C369.008,649.19 373.717,648.667 376.202,648.405 C377.183,652.591 377.968,655.73 378.557,656.907 C379.341,658.346 380.78,658.935 382.546,658.935 C384.116,658.935 384.508,658.15 384.508,656.907 C384.508,653.768 378.033,624.861 374.829,617.144 Z M366.196,644.154 C367.635,637.156 369.27,628.654 370.643,621.33 C372.082,628.393 373.717,637.026 375.221,644.023 C372.867,644.023 369.531,644.089 366.196,644.154 L366.196,644.154 Z" id="Fill-35" fill="#000000"></path>
        <path d="M391.44,616.621 C390.983,628 391.244,652.852 391.637,656.319 C391.898,658.019 393.599,658.608 395.626,658.608 C396.607,658.673 397.719,658.673 399.092,658.673 C402.82,658.673 407.463,658.346 408.444,658.15 C410.472,657.757 411.126,657.496 411.126,656.253 C411.126,654.16 409.622,652.395 407.529,652.395 C405.763,652.395 401.839,652.591 397.98,652.787 C398.307,644.023 398.765,622.311 398.046,617.079 C397.784,615.378 395.168,614.724 393.533,614.724 C392.094,614.724 391.506,615.509 391.44,616.621" id="Fill-36" fill="#000000"></path>
        <path d="M416.358,616.621 C415.9,628 416.162,652.852 416.554,656.319 C416.816,658.019 418.516,658.608 420.609,658.608 C422.244,658.608 422.636,657.692 422.767,656.057 C423.029,652.068 423.813,623.226 422.963,617.079 C422.702,615.378 420.086,614.724 418.451,614.724 C417.012,614.724 416.423,615.509 416.358,616.621" id="Fill-37" fill="#000000"></path>
        <path d="M447.619,617.144 C446.834,615.117 444.741,614.463 442.714,614.463 C441.537,614.463 441.079,614.92 440.425,616.686 C438.267,622.899 434.931,634.998 432.904,644.481 C431.988,644.547 431.204,644.677 430.55,644.743 C429.896,644.874 429.569,645.462 429.634,646.247 C429.634,647.49 430.615,649.19 431.858,649.648 C431.269,652.656 430.942,655.076 430.942,656.515 C430.942,657.888 433.166,658.935 434.539,658.935 C435.651,658.935 435.978,658.281 436.37,656.646 C436.763,655.076 437.286,652.591 437.94,649.517 C441.798,649.19 446.507,648.667 448.992,648.405 C449.973,652.591 450.758,655.73 451.347,656.907 C452.132,658.346 453.57,658.935 455.336,658.935 C456.906,658.935 457.298,658.15 457.298,656.907 C457.298,653.768 450.824,624.861 447.619,617.144 Z M438.986,644.154 C440.425,637.156 442.06,628.654 443.433,621.33 C444.872,628.393 446.507,637.026 448.011,644.023 C445.657,644.023 442.322,644.089 438.986,644.154 L438.986,644.154 Z" id="Fill-38" fill="#000000"></path>
        <path d="M485.224,616.555 C485.093,619.891 485.093,624.534 485.486,629.047 C482.935,626.3 480.319,624.142 478.88,623.226 C477.114,622.049 475.218,622.965 474.498,623.815 C473.714,624.73 474.171,625.711 475.283,626.692 C477.245,628.589 480.057,630.943 483.393,632.905 C479.665,634.213 476.33,635.848 474.891,636.829 C472.667,638.268 472.929,640.165 473.517,641.407 C474.106,642.519 474.956,642.258 476.264,641.734 C478.749,640.623 482.019,638.988 485.224,636.895 C485.093,638.007 485.093,639.118 485.093,640.361 C485.224,644.285 485.289,648.209 485.42,649.321 C485.747,651.479 487.055,652.264 487.971,652.264 C489.344,652.264 489.737,651.021 489.802,648.667 C489.933,646.836 489.867,642.715 489.475,638.007 C491.895,640.623 494.511,642.715 496.015,643.762 C497.388,644.743 499.35,644.023 500.004,643.239 C500.985,642.127 500.266,641.08 498.566,639.445 C497.388,638.399 494.511,636.11 490.914,633.821 C494.838,632.382 498.762,630.289 500.07,629.505 C501.836,628.393 501.901,626.954 501.378,625.711 C500.724,624.469 499.481,624.6 497.258,625.515 C495.819,626.104 492.876,627.739 489.41,630.028 C489.998,624.992 489.998,620.349 489.737,618.321 C489.41,615.64 487.775,614.79 486.794,614.79 C485.747,614.79 485.289,615.509 485.224,616.555" id="Fill-39" fill="#000000"></path>
        <path d="M524.529,657.365 C524.66,652.264 525.249,637.353 525.837,623.03 C528.388,636.699 531.92,652.787 533.62,656.711 C534.339,658.15 536.367,658.738 537.675,658.738 C538.852,658.738 539.244,658.215 539.441,657.365 C540.945,651.741 545,634.802 546.765,622.965 C547.55,637.091 547.877,651.871 548.793,656.515 C549.251,658.15 551.736,658.738 553.632,658.738 C555.071,658.738 555.464,658.019 555.398,656.776 C554.94,648.928 553.044,623.619 551.278,616.752 C550.886,615.247 548.4,614.593 546.569,614.593 C544.934,614.593 544.542,615.182 544.215,616.425 C541.86,626.3 539.179,638.464 537.479,648.405 C535.124,636.241 531.723,621.46 529.761,616.359 C529.238,614.986 526.949,614.463 524.922,614.463 C523.81,614.463 522.96,614.986 522.764,616.294 C520.867,630.093 518.709,650.956 518.709,656.449 C518.709,658.019 520.998,658.804 522.764,658.804 C523.81,658.804 524.529,658.346 524.529,657.365" id="Fill-40" fill="#000000"></path>
        <path d="M578.484,617.144 C577.7,615.117 575.607,614.463 573.579,614.463 C572.402,614.463 571.944,614.92 571.29,616.686 C569.132,622.899 565.797,634.998 563.769,644.481 C562.854,644.547 562.069,644.677 561.415,644.743 C560.761,644.874 560.434,645.462 560.499,646.247 C560.499,647.49 561.48,649.19 562.723,649.648 C562.134,652.656 561.807,655.076 561.807,656.515 C561.807,657.888 564.031,658.935 565.404,658.935 C566.516,658.935 566.843,658.281 567.236,656.646 C567.628,655.076 568.151,652.591 568.805,649.517 C572.664,649.19 577.373,648.667 579.858,648.405 C580.839,652.591 581.624,655.73 582.212,656.907 C582.997,658.346 584.436,658.935 586.202,658.935 C587.771,658.935 588.164,658.15 588.164,656.907 C588.164,653.768 581.689,624.861 578.484,617.144 Z M569.852,644.154 C571.29,637.156 572.925,628.654 574.299,621.33 C575.738,628.393 577.373,637.026 578.877,644.023 C576.522,644.023 573.187,644.089 569.852,644.154 L569.852,644.154 Z" id="Fill-41" fill="#000000"></path>
        <path d="M589.668,616.163 C589.668,619.433 596.666,639.315 599.739,646.247 C599.674,650.302 599.739,655.141 599.805,656.449 C599.936,658.15 602.094,658.673 603.925,658.673 C605.625,658.673 605.952,657.627 606.083,655.665 C606.149,654.291 606.476,649.255 606.541,645.658 C609.746,637.876 616.155,620.087 616.155,616.686 C616.155,615.313 613.997,614.463 612.492,614.463 C611.577,614.463 611.25,615.117 610.792,616.425 C609.549,620.349 606.149,631.597 603.794,640.688 C601.309,631.205 596.927,619.041 595.554,616.228 C594.834,614.855 592.415,614.397 591.434,614.397 C590.126,614.397 589.668,614.986 589.668,616.163" id="Fill-42" fill="#000000"></path>
        <path d="M633.42,658.346 C635.186,658.346 650.097,658.281 653.956,657.627 C654.872,657.496 655.395,657.038 655.395,655.992 C655.395,654.618 654.61,651.152 652.844,651.021 C650.817,650.89 642.315,651.871 636.756,652.068 C646.043,646.182 655.133,638.137 655.133,629.374 C655.133,622.703 650.555,617.275 643.884,617.275 C636.233,617.275 630.935,622.376 630.935,624.207 C630.935,625.711 633.028,628.262 634.336,628.262 C634.925,628.262 635.448,628 636.167,627.346 C638.522,625.319 641.203,623.749 643.95,623.749 C646.108,623.749 647.939,625.319 647.939,629.57 C647.939,636.11 641.072,643.369 632.505,651.283 C631.458,652.133 630.739,652.656 630.739,653.768 C630.739,655.468 631.589,658.281 633.42,658.346" id="Fill-43" fill="#000000"></path>
        <path d="M661.804,658.346 C663.57,658.346 678.481,658.281 682.34,657.627 C683.255,657.496 683.778,657.038 683.778,655.992 C683.778,654.618 682.994,651.152 681.228,651.021 C679.2,650.89 670.698,651.871 665.139,652.068 C674.426,646.182 683.517,638.137 683.517,629.374 C683.517,622.703 678.939,617.275 672.268,617.275 C664.616,617.275 659.319,622.376 659.319,624.207 C659.319,625.711 661.412,628.262 662.72,628.262 C663.308,628.262 663.831,628 664.551,627.346 C666.905,625.319 669.587,623.749 672.333,623.749 C674.492,623.749 676.323,625.319 676.323,629.57 C676.323,636.11 669.456,643.369 660.888,651.283 C659.842,652.133 659.123,652.656 659.123,653.768 C659.123,655.468 659.973,658.281 661.804,658.346" id="Fill-44" fill="#000000"></path>
        <path d="M712.62,635.914 C709.481,635.718 705.753,635.652 702.221,635.652 C698.166,635.652 694.177,635.652 691.169,635.979 C689.534,636.11 688.618,636.633 688.618,638.007 C688.618,639.642 689.337,641.865 691.169,641.996 C693.85,642.127 696.597,642.061 700.717,642.061 C703.66,642.061 709.546,641.865 713.274,641.538 C714.582,641.342 715.17,640.95 715.17,639.838 C715.17,638.399 714.386,635.979 712.62,635.914" id="Fill-45" fill="#000000"></path>
        <path d="M719.552,658.346 C721.318,658.346 736.229,658.281 740.088,657.627 C741.003,657.496 741.527,657.038 741.527,655.992 C741.527,654.618 740.742,651.152 738.976,651.021 C736.949,650.89 728.447,651.871 722.888,652.068 C732.174,646.182 741.265,638.137 741.265,629.374 C741.265,622.703 736.687,617.275 730.016,617.275 C722.364,617.275 717.067,622.376 717.067,624.207 C717.067,625.711 719.16,628.262 720.468,628.262 C721.056,628.262 721.58,628 722.299,627.346 C724.653,625.319 727.335,623.749 730.082,623.749 C732.24,623.749 734.071,625.319 734.071,629.57 C734.071,636.11 727.204,643.369 718.637,651.283 C717.59,652.133 716.871,652.656 716.871,653.768 C716.871,655.468 717.721,658.281 719.552,658.346" id="Fill-46" fill="#000000"></path>
        <path d="M750.552,658.935 C759.315,658.935 770.564,653.245 770.564,643.239 C770.564,637.091 767.229,634.475 761.147,634.475 C757.615,634.475 754.868,635.587 752.71,636.764 C752.906,633.167 752.841,627.935 752.841,624.273 C756.569,624.469 761.67,624.534 766.771,624.534 C768.864,624.534 769.583,623.488 769.583,622.376 C769.583,620.676 768.733,617.733 766.967,617.733 C765.201,617.667 752.579,617.929 748.786,618.19 C747.87,618.256 747.282,618.844 747.282,619.891 C747.282,620.872 747.151,633.69 747.151,637.941 C747.151,639.445 750.094,640.884 751.664,640.884 C753.233,640.884 756.176,639.053 759.969,639.053 C763.043,639.053 764.351,640.557 764.351,642.65 C764.351,647.947 757.877,650.302 749.048,652.329 C747.543,652.591 747.086,653.31 747.086,654.095 C747.086,656.057 748.917,658.935 750.552,658.935" id="Fill-47" fill="#000000"></path>
        <path d="M647.364,84.118 C563.268,77.29 481.014,76.835 395.077,76.835 C307.913,76.835 234.252,79.566 160.592,84.118 C142.177,85.484 132.97,91.856 131.742,107.788 C127.445,168.328 126.217,236.151 126.217,302.153 C126.217,488.78 129.9,495.152 172.255,498.339 C232.411,502.891 302.388,503.801 411.651,503.801 C492.063,503.801 577.386,500.615 660.254,495.152 C674.372,494.242 681.124,488.78 681.738,475.579 C686.649,399.563 686.649,332.195 686.649,277.118 C686.649,98.229 682.352,86.849 647.364,84.118 Z M347.992,316.612 C345.544,311.084 339.017,309.3 332.693,309.3 C329.021,309.3 327.594,310.549 325.554,315.364 C318.822,332.305 308.419,365.296 302.096,391.154 C299.24,391.332 296.792,391.689 294.752,391.867 C292.712,392.224 291.693,393.829 291.897,395.969 C291.897,399.357 294.956,403.993 298.832,405.242 C296.996,413.445 295.976,420.043 295.976,423.966 C295.976,427.711 302.912,430.564 307.195,430.564 C310.663,430.564 311.683,428.781 312.907,424.323 C314.131,420.043 315.763,413.266 317.802,404.885 C329.837,403.993 344.524,402.567 352.276,401.853 C355.335,413.266 357.783,421.826 359.619,425.036 C362.067,428.959 366.554,430.564 372.062,430.564 C376.958,430.564 378.181,428.425 378.181,425.036 C378.181,416.476 357.987,337.655 347.992,316.612 Z M270.274,372.429 C273.538,369.576 274.354,361.194 274.354,351.921 C274.354,329.273 264.971,309.122 242.329,309.122 C218.463,309.122 201.532,333.375 201.532,382.772 C201.532,414.693 213.975,430.386 242.329,430.386 C260.891,430.386 279.454,420.4 279.454,413.623 C279.454,409.522 274.966,402.923 271.906,402.923 C268.846,402.923 257.015,413.088 242.941,413.088 C229.682,413.088 223.154,406.668 223.154,380.811 C223.154,346.036 229.886,325.885 241.921,325.885 C250.284,325.885 254.976,334.623 254.976,355.666 C254.976,360.303 254.364,368.327 254.364,371.181 C254.364,373.856 257.423,375.104 260.075,375.104 C264.563,375.104 268.03,374.212 270.274,372.429 Z M413.267,426.285 C413.675,412.375 415.51,371.716 417.346,332.662 C425.302,369.932 436.317,413.801 441.62,424.501 C443.864,428.425 450.188,430.029 454.267,430.029 C457.939,430.029 459.163,428.603 459.775,426.285 C464.466,410.948 477.113,364.761 482.621,332.483 C485.069,371.002 486.089,411.305 488.944,423.966 C490.372,428.425 498.124,430.029 504.039,430.029 C508.527,430.029 509.751,428.068 509.547,424.68 C508.119,403.28 502.203,334.266 496.696,315.542 C495.472,311.44 487.721,309.657 482.009,309.657 C476.909,309.657 475.686,311.262 474.666,314.65 C467.322,341.578 458.959,374.747 453.655,401.853 C446.312,368.684 435.705,328.382 429.585,314.472 C427.953,310.727 420.814,309.3 414.491,309.3 C411.023,309.3 408.371,310.727 407.759,314.294 C401.844,351.921 395.112,408.808 395.112,423.788 C395.112,428.068 402.252,430.208 407.759,430.208 C411.023,430.208 413.267,428.959 413.267,426.285 Z M538.716,328.917 C537.9,362.087 538.716,415.05 539.736,423.431 C540.552,428.068 545.856,429.494 552.383,429.673 C557.687,429.851 558.707,427.176 559.115,422.718 C559.319,418.973 559.931,407.56 560.339,393.65 C563.806,395.79 570.742,397.038 577.473,397.038 C594.812,396.86 613.374,382.415 613.374,347.998 C613.374,320.535 601.339,308.587 570.946,308.587 C558.707,308.587 529.129,310.727 529.129,317.503 C529.129,320.178 532.8,328.915 536.677,328.917 L538.716,328.917 Z M321.066,390.262 C325.554,371.181 330.653,347.998 334.937,328.025 C339.425,347.285 344.524,370.824 349.216,389.905 C341.872,389.905 331.469,390.084 321.066,390.262 Z M571.966,383.307 C566.662,383.307 563.194,382.772 560.543,382.594 C560.951,361.908 561.155,338.903 560.339,326.063 C564.214,325.528 567.886,325.172 571.558,325.172 C585.633,325.172 592.16,330.7 592.16,350.138 C592.16,373.321 582.777,383.307 571.966,383.307 Z M541.164,244.943 C537.288,244.943 533.821,251.185 533.821,257.783 C533.821,263.846 550.139,272.228 574.005,272.228 C594.2,272.228 611.334,261.884 611.334,244.408 C611.334,215.875 557.075,215.697 557.075,193.763 C557.075,176.643 563.398,166.835 571.966,166.835 C580.533,166.835 586.244,178.07 586.652,198.221 C586.652,201.074 588.896,202.679 591.344,202.679 C599.911,202.679 605.827,196.259 605.827,190.909 C605.827,171.828 599.911,150.607 574.617,150.607 C550.343,150.607 535.657,170.936 535.657,195.724 C535.657,230.32 592.16,231.033 592.16,246.191 C592.16,252.255 587.06,255.821 578.697,255.821 C562.582,255.821 546.672,244.943 541.164,244.943 Z M354.111,158.097 C351.664,152.568 345.136,150.785 338.813,150.785 C335.141,150.785 333.713,152.033 331.673,156.848 C324.942,173.79 314.539,206.781 308.215,232.638 C305.359,232.817 302.912,233.173 300.872,233.352 C298.832,233.708 297.812,235.313 298.016,237.453 C298.016,240.842 301.076,245.478 304.951,246.726 C303.116,254.93 302.096,261.528 302.096,265.451 C302.096,269.196 309.031,272.049 313.315,272.049 C316.783,272.049 317.802,270.266 319.026,265.808 C320.25,261.528 321.882,254.751 323.922,246.37 C335.957,245.478 350.644,244.052 358.395,243.338 C361.455,254.751 363.903,263.311 365.738,266.521 C368.186,270.444 372.674,272.049 378.181,272.049 C383.077,272.049 384.301,269.909 384.301,266.521 C384.301,257.961 364.107,179.14 354.111,158.097 Z M210.303,170.401 C209.487,203.749 210.303,256.535 211.323,264.916 C212.139,269.553 217.443,270.979 223.97,271.158 C229.274,271.336 230.294,268.661 230.702,264.203 C230.906,260.101 231.517,246.905 231.925,231.033 C234.169,231.747 237.229,232.103 240.493,232.46 C254.364,258.496 264.155,271.693 270.274,271.693 C277.414,271.693 285.165,268.304 285.165,264.024 C285.165,262.776 284.553,261.528 283.125,259.923 C278.026,253.325 267.215,240.307 259.871,230.32 C272.926,225.327 284.961,212.131 284.961,189.304 C284.961,160.772 271.498,150.072 242.533,150.072 C230.294,150.072 200.716,152.212 200.716,158.988 C200.716,161.663 204.388,170.401 208.263,170.401 L210.303,170.401 Z M463.039,156.67 C461.611,187.699 462.427,255.465 463.65,264.916 C464.466,269.553 469.77,271.158 476.093,271.158 C479.153,271.336 482.621,271.336 486.905,271.336 C498.532,271.336 513.014,270.444 516.074,269.909 C522.398,268.839 524.438,268.126 524.438,264.738 C524.438,259.031 519.746,254.216 513.218,254.216 C507.711,254.216 495.472,254.751 483.437,255.286 C484.457,231.39 485.885,172.185 483.641,157.918 C482.825,153.282 474.666,151.498 469.566,151.498 C465.078,151.498 463.243,153.638 463.039,156.67 Z M408.575,156.67 C407.147,187.699 407.963,255.465 409.187,264.916 C410.003,269.553 415.306,271.158 421.834,271.158 C426.933,271.158 428.157,268.661 428.565,264.203 C429.381,253.325 431.829,174.681 429.177,157.918 C428.361,153.282 420.202,151.498 415.102,151.498 C410.615,151.498 408.779,153.638 408.575,156.67 Z M327.186,231.747 C331.673,212.666 336.773,189.483 341.057,169.51 C345.544,188.769 350.644,212.309 355.335,231.39 C347.992,231.39 337.589,231.568 327.186,231.747 Z M242.125,219.442 C237.637,219.442 234.577,218.907 232.129,218.55 C232.537,199.647 232.741,179.496 231.925,167.548 C235.801,167.013 239.473,166.656 243.145,166.656 C257.219,166.656 263.747,172.72 263.747,191.444 C263.747,210.882 253.752,219.442 242.125,219.442 L242.125,219.442 Z" id="Fill-48" fill="#000000"></path>
        <path d="M401.773,36.018 C399.484,35.887 396.868,35.821 394.317,35.821 C391.309,35.821 388.235,35.821 385.881,36.083 C384.442,36.214 383.788,36.541 383.788,37.783 C383.788,39.288 384.442,41.38 386.142,41.511 C388.039,41.577 390.001,41.642 392.879,41.642 C395.102,41.642 399.549,41.511 402.362,41.25 C403.539,41.119 404.127,40.726 404.127,39.615 C404.127,38.241 403.408,36.148 401.773,36.018 Z M394.383,25.946 C391.767,25.946 390.459,23.199 390.459,18.621 C390.459,12.474 391.701,7.961 394.841,7.961 C397.13,7.961 398.568,9.661 398.568,15.024 C398.568,21.041 397.718,25.946 394.383,25.946 Z M393.86,31.701 C401.446,31.701 403.997,24.311 403.997,16.332 C403.997,6.784 400.596,2.925 394.71,2.925 C387.385,2.925 384.311,10.25 384.311,19.471 C384.311,26.469 386.993,31.701 393.86,31.701 Z M373.586,44.193 C374.894,44.193 377.313,43.408 377.64,41.773 C378.033,40.334 378.098,37.326 378.098,33.729 C378.098,26.404 377.902,17.117 377.902,10.904 C377.902,7.503 379.472,6.98 381.368,6.98 C382.611,6.98 383.265,6.522 383.265,5.345 C383.265,3.645 382.088,1.486 379.145,1.486 C374.828,1.486 371.951,3.383 371.885,9.531 C371.951,15.417 372.212,24.507 372.343,32.878 C368.288,22.872 363.841,14.239 359.132,5.672 C357.759,3.579 355.928,3.514 353.181,3.514 C343.371,3.514 336.242,8.68 336.242,17.444 C336.242,22.872 340.886,25.815 344.221,25.815 C345.529,25.815 346.052,25.488 346.052,24.573 C346.052,23.526 343.305,22.284 343.305,18.033 C343.305,13.258 345.333,10.642 351.088,9.792 C350.957,14.828 350.892,20.06 350.892,25.03 C350.892,30.001 350.957,34.579 351.088,37.718 C349.257,37.783 347.622,37.98 346.314,38.176 C344.679,38.437 344.352,39.026 344.352,39.876 C344.352,43.015 345.267,44.193 347.164,44.193 C352.788,44.193 358.74,43.931 361.421,43.604 C363.579,43.342 364.037,42.754 364.037,41.838 C364.037,39.876 362.86,37.456 360.767,37.456 C359.459,37.456 358.086,37.456 356.647,37.522 C356.712,35.494 356.778,33.075 356.778,30.459 C356.778,23.134 356.582,15.024 356.189,10.577 C360.702,21.826 365.999,31.963 371.231,42.492 C371.754,43.604 372.343,44.193 373.586,44.193 L373.586,44.193 Z" id="Fill-49" fill="#000000"></path>
        <path d="M411.583,44.127 C413.349,44.127 428.26,44.062 432.119,43.408 C433.034,43.277 433.557,42.819 433.557,41.773 C433.557,40.399 432.773,36.933 431.007,36.802 C428.979,36.672 420.477,37.653 414.918,37.849 C424.205,31.963 433.296,23.919 433.296,15.155 C433.296,8.484 428.718,3.056 422.047,3.056 C414.395,3.056 409.098,8.157 409.098,9.988 C409.098,11.493 411.191,14.043 412.499,14.043 C413.087,14.043 413.61,13.782 414.33,13.128 C416.684,11.1 419.366,9.531 422.112,9.531 C424.271,9.531 426.102,11.1 426.102,15.351 C426.102,21.891 419.235,29.151 410.667,37.064 C409.621,37.914 408.902,38.437 408.902,39.549 C408.902,41.25 409.752,44.062 411.583,44.127" id="Fill-50" fill="#000000"></path>
        <path d="M445.918,44.52 C446.703,44.52 447.357,43.604 448.142,42.034 C450.692,36.868 455.466,24.834 459.652,11.558 C460.11,10.315 460.568,8.615 460.568,7.634 C460.568,5.803 459.456,3.645 457.69,3.579 C455.859,3.579 441.732,3.514 437.874,3.775 C436.893,3.906 436.37,4.429 436.37,5.476 C436.37,6.784 437.154,10.512 438.92,10.512 C443.04,10.512 451.477,9.988 455.074,9.661 C452,16.136 444.087,33.271 441.667,38.83 C441.144,39.942 440.882,40.726 440.882,41.184 C440.882,42.688 444.806,44.52 445.918,44.52" id="Fill-51" fill="#000000"></path>
        <path d="M466.65,2.86 C466.127,14.828 467.173,26.077 467.5,29.674 C467.696,31.44 468.546,31.897 470.705,32.028 C472.405,32.159 472.667,30.851 472.863,28.693 C473.059,25.881 473.778,16.071 473.713,8.615 C473.713,6.391 473.648,4.364 473.386,2.86 C473.19,1.029 470.247,0.44 468.808,0.44 C467.304,0.44 466.781,1.421 466.65,2.86 Z M469.985,44.65 C473.059,44.65 475.152,42.623 475.152,39.222 C475.152,37.326 473.975,34.971 470.508,34.971 C467.238,34.971 465.08,37.129 465.08,40.138 C465.08,42.558 466.781,44.65 469.985,44.65 L469.985,44.65 Z" id="Fill-52" fill="#000000"></path>
        <path d="M19.558,300.43 C26.891,299.607 36.489,296.658 46.888,293.772 C46.745,294.026 46.601,294.28 46.458,294.534 C42.696,301.285 39.533,307.371 38.598,309.913 C38.259,311.006 38.524,312.217 39.069,312.636 C39.407,312.828 39.974,312.813 40.423,312.118 C43.312,308.391 47.012,302.441 50.516,296.047 C50.7,296.709 50.884,297.372 51.068,298.034 C53.892,307.952 56.572,316.839 58.076,320.202 C58.812,321.568 60.24,322.598 61.101,322.359 C61.631,322.212 62.05,321.668 61.907,320.637 C61.239,314.117 58.886,304.354 56.128,294.418 C60.161,296.866 63.726,298.659 65.326,299.285 C66.456,299.756 67.685,299.557 68.123,299.079 C68.314,298.741 68.366,298.156 67.671,297.706 C65.401,295.697 61.964,293.083 58.112,290.514 C69.98,287.006 80.13,283.476 82.489,282.464 C84.108,281.872 84.921,280.434 84.646,279.44 C84.498,278.91 83.774,278.612 81.93,278.91 C79.604,279.27 68.583,281.972 56.34,285.156 C60.076,278.055 62.859,272.146 63.485,270.545 C63.938,269.35 63.692,268.205 63.015,267.822 C62.61,267.649 62.099,267.863 61.259,268.952 C60.391,270.191 56.89,276.086 52.9,283.043 C49.344,271.26 45.964,261.14 44.953,258.781 C44.295,257.18 42.79,256.385 41.929,256.624 C41.333,256.789 41.016,257.448 41.332,259.358 C41.674,261.617 44.229,272.109 47.266,283.822 C42.593,281.124 38.689,279.14 37.692,278.632 C36.515,278.245 35.267,278.377 34.932,278.97 C34.759,279.374 34.906,279.904 35.881,280.846 C36.801,281.59 41.113,284.531 46.187,287.903 C45.127,288.197 44.133,288.473 43.14,288.748 C32.674,291.653 23.651,294.871 19.974,296.533 C18.59,297.203 17.56,298.63 17.817,299.558 C17.964,300.088 18.443,300.526 19.558,300.43" id="Fill-53" fill="#000000"></path>
        <path d="M771.802,339.149 C774.619,328.822 775.782,314.305 777.458,298.74 C777.724,299.07 777.989,299.399 778.254,299.729 C785.342,308.415 791.853,315.936 794.779,318.558 C796.071,319.6 797.845,319.891 798.702,319.382 C799.141,319.028 799.425,318.256 798.728,317.278 C795.251,311.388 789.211,303.216 782.467,295.068 C783.459,295.175 784.45,295.281 785.441,295.388 C800.323,296.891 813.738,298.035 819.078,297.808 C821.312,297.547 823.466,296.175 823.605,294.886 C823.69,294.093 823.181,293.236 821.715,292.877 C812.567,290.287 798.146,288.232 783.276,286.63 C788.735,282.505 793.06,278.659 794.761,276.836 C796.001,275.566 796.391,273.802 795.981,272.956 C795.627,272.517 794.866,272.134 793.889,272.831 C789.964,274.815 784.601,278.048 779.076,281.866 C780.7,263.989 781.375,248.416 781.275,244.695 C781.343,242.195 779.839,240.328 778.352,240.168 C777.559,240.083 776.769,240.9 776.183,243.545 C775.424,246.873 773.166,263.177 770.904,281.386 C763.331,272.548 756.855,265.632 755.033,263.931 C753.663,262.681 751.989,262.4 751.11,263.108 C750.66,263.561 750.674,264.365 751.693,266.079 C752.899,267.914 758.971,275.789 766.213,284.893 C748.425,283.378 732.973,282.515 729.252,282.616 C726.741,282.646 724.864,284.249 724.725,285.538 C724.629,286.43 725.347,287.21 728.091,287.806 C731.32,288.555 746.831,290.727 764.247,292.904 C758.108,297.759 753.343,301.959 752.125,303.031 C750.973,304.412 750.483,306.164 751.103,306.933 C751.556,307.383 752.349,307.468 754.141,306.658 C755.636,305.817 761.909,301.578 769.17,296.544 C769,298.13 768.839,299.617 768.679,301.104 C766.992,316.768 766.499,330.655 766.772,336.501 C766.933,338.725 768.306,340.878 769.694,341.028 C770.487,341.113 771.333,340.703 771.802,339.149" id="Fill-54" fill="#000000"></path>
        <path d="M9.796,343.705 C15.801,343.705 19.941,340.519 19.941,335.073 C19.941,332.036 17.584,328.257 10.308,328.257 C3.771,328.257 0,331.739 0,336.509 C0,340.371 3.402,343.705 9.796,343.705" id="Fill-55" fill="#000000"></path>
        <path d="M80.928,236.97 C81.403,239.667 83.404,241.231 86.266,240.727 C87.862,240.446 89.661,239.038 89.086,235.771 C88.569,232.835 86.441,231.464 83.934,231.905 C81.905,232.263 80.422,234.099 80.928,236.97" id="Fill-56" fill="#000000"></path>
        <path d="M734.255,240.124 C736.993,240.124 738.88,238.425 738.88,235.519 C738.88,233.899 737.806,231.882 734.488,231.882 C731.507,231.882 729.788,233.74 729.788,236.285 C729.788,238.345 731.339,240.124 734.255,240.124" id="Fill-57" fill="#000000"></path>
        <path d="M724.213,344.239 C728.383,344.239 731.258,341.039 731.258,335.566 C731.258,332.515 729.621,328.717 724.569,328.717 C720.029,328.717 717.41,332.216 717.41,337.009 C717.41,340.89 719.773,344.239 724.213,344.239" id="Fill-58" fill="#000000"></path>
    </g>
</svg>